HIERARCHY
ROOT wineglass3
{
	OFFSET 0.000000 0.000000 0.000000
	CHANNELS 6 Xposition Yposition Zposition Yrotation Xrotation Zrotation
	End Site
	{
		OFFSET 0.000000 0.000000 0.000000
	}
}
MOTION
Frames: 103
Frame Time: 0.008333334
1.836887 3.768951 2.886160 -124.609100 2.340597 4.967231 
1.837821 3.769042 2.886422 -124.611800 2.340622 5.061450 
1.839332 3.768896 2.887402 -124.587200 2.301934 5.102468 
1.840666 3.769099 2.887823 -124.618600 2.194010 5.217509 
1.841061 3.769205 2.887361 -124.590200 2.205378 5.267344 
1.840513 3.769194 2.887160 -124.619400 2.195351 5.186497 
1.839394 3.769015 2.887553 -124.617600 2.265356 5.144710 
1.837866 3.769143 2.887706 -124.615200 2.346251 4.985759 
1.835557 3.769212 2.887136 -124.683000 2.411196 5.040353 
1.834785 3.768905 2.886190 -124.661000 2.417857 4.955844 
1.834691 3.769220 2.885700 -124.645500 2.416084 4.979663 
1.835260 3.769126 2.885564 -124.702800 2.382962 5.004964 
1.837093 3.769035 2.884892 -124.623400 2.343190 5.000761 
1.838339 3.768965 2.884456 -124.653300 2.305069 5.125755 
1.839019 3.769241 2.883351 -124.618900 2.277954 5.295982 
1.838600 3.768987 2.883134 -124.628700 2.273308 5.204105 
1.837838 3.768931 2.883493 -124.658600 2.285573 5.166844 
1.836173 3.768893 2.883510 -124.671700 2.304397 5.154552 
1.834913 3.768968 2.882808 -124.638300 2.338701 5.065366 
1.833851 3.768987 2.882364 -124.634900 2.326002 5.136841 
1.834662 3.768955 2.883053 -124.654400 2.329889 5.055089 
1.835556 3.768906 2.882563 -124.623700 2.335720 5.071593 
1.836373 3.768736 2.882486 -124.617600 2.302608 5.159973 
1.836441 3.768794 2.882293 -124.655700 2.295635 5.244048 
1.835875 3.768774 2.882550 -124.662900 2.309753 5.118684 
1.834947 3.768893 2.882318 -124.652400 2.320609 5.127749 
1.834080 3.769008 2.882502 -124.661400 2.358146 5.081812 
1.834034 3.769173 2.882220 -124.694500 2.342210 5.198012 
1.834870 3.768914 2.882404 -124.652100 2.293138 5.178645 
1.835828 3.768789 2.882542 -124.636400 2.302311 5.115169 
1.836986 3.769004 2.882511 -124.628100 2.393753 5.040451 
1.836543 3.769048 2.882621 -124.655300 2.395258 5.003861 
1.835684 3.768764 2.882509 -124.644300 2.322045 5.071855 
1.834911 3.768875 2.882349 -124.604800 2.325415 5.073800 
1.833938 3.769063 2.882373 -124.640300 2.346375 5.117982 
1.834567 3.769082 2.882633 -124.684700 2.328685 5.150776 
1.835516 3.768964 2.882422 -124.648700 2.317179 5.106978 
1.836188 3.768555 2.882460 -124.640700 2.275435 5.147021 
1.836382 3.768836 2.882253 -124.635700 2.277906 5.281329 
1.836018 3.768943 2.882534 -124.631900 2.341111 5.050121 
1.835292 3.768973 2.882617 -124.612800 2.350259 5.040753 
1.834354 3.769058 2.882158 -124.632400 2.316672 5.159540 
1.834010 3.768973 2.881922 -124.647300 2.358903 5.086025 
1.835226 3.768848 2.882464 -124.617800 2.319049 5.060421 
1.835211 3.768801 2.882411 -124.674600 2.312809 5.102300 
1.835707 3.768790 2.882149 -124.676200 2.326219 5.004312 
1.836018 3.768758 2.882363 -124.662200 2.343416 5.030002 
1.835385 3.768779 2.882164 -124.590100 2.308470 5.023706 
1.834791 3.768755 2.882143 -124.635000 2.307653 4.986982 
1.834822 3.768750 2.882084 -124.653600 2.348793 5.034934 
1.834682 3.768934 2.882176 -124.652600 2.338013 5.049644 
1.835242 3.768842 2.882367 -124.641200 2.345284 5.009614 
1.835972 3.768975 2.882597 -124.629100 2.346976 5.101350 
1.835901 3.768970 2.882271 -124.656600 2.327037 5.214880 
1.835742 3.768892 2.882256 -124.645900 2.341697 5.113478 
1.835332 3.768894 2.882323 -124.669200 2.377213 5.080206 
1.834946 3.769005 2.882250 -124.661700 2.330988 5.102104 
1.834844 3.768974 2.882074 -124.680800 2.333464 5.176428 
1.835492 3.768795 2.882537 -124.641200 2.336689 5.068085 
1.835685 3.768664 2.882465 -124.658600 2.313201 5.069447 
1.835617 3.768725 2.882238 -124.658200 2.299730 5.123741 
1.835809 3.768720 2.882175 -124.674800 2.315824 5.042905 
1.835684 3.768557 2.882005 -124.652400 2.336603 4.930528 
1.835441 3.768665 2.882105 -124.630000 2.366683 5.063567 
1.835034 3.768687 2.882102 -124.691100 2.331988 5.147221 
1.835312 3.768635 2.882236 -124.663100 2.325499 5.118989 
1.835781 3.768726 2.882523 -124.666000 2.374466 5.068008 
1.835879 3.768680 2.882486 -124.655500 2.311869 5.092553 
1.835906 3.768639 2.882265 -124.677600 2.342993 4.986869 
1.836011 3.768419 2.882378 -124.571000 2.344365 4.911276 
1.835629 3.768449 2.882176 -124.620100 2.338823 4.925704 
1.835717 3.768568 2.882288 -124.619200 2.332460 4.904670 
1.835781 3.768572 2.882349 -124.642100 2.319496 4.941726 
1.835902 3.768698 2.882167 -124.638100 2.352461 4.977298 
1.836089 3.768756 2.882208 -124.625900 2.340233 5.051964 
1.835920 3.768797 2.882298 -124.659400 2.334821 5.073947 
1.835303 3.768950 2.882118 -124.654900 2.338907 5.025015 
1.835025 3.768970 2.882023 -124.633100 2.330150 5.059280 
1.834202 3.768587 2.881874 -124.683500 2.300694 5.042156 
1.834059 3.768393 2.881211 -124.649200 2.305044 4.938199 
1.834144 3.769067 2.881168 -124.679500 2.397756 5.048500 
1.834288 3.768577 2.881272 -124.697900 2.402109 4.938935 
1.834389 3.768290 2.882230 -124.690900 2.296508 5.106721 
1.835082 3.768669 2.882529 -124.626500 2.366700 5.059773 
1.835231 3.768452 2.882489 -124.614300 2.378835 4.953986 
1.834683 3.768431 2.882850 -124.624600 2.336043 5.047314 
1.833609 3.768174 2.883302 -124.635100 2.361906 4.970826 
1.832249 3.768303 2.883715 -124.572600 2.514045 4.993136 
1.830122 3.767759 2.885516 -124.734600 2.475581 4.945459 
1.828761 3.767924 2.886450 -124.759700 2.495187 4.970719 
1.828194 3.768237 2.887235 -124.647600 2.537590 4.995251 
1.828625 3.768084 2.888457 -124.705600 2.531882 4.980167 
1.829808 3.767915 2.889364 -124.673300 2.456912 4.947484 
1.831812 3.767490 2.890146 -124.704900 2.302045 5.034543 
1.832988 3.767579 2.890390 -124.729300 2.343995 5.000361 
1.833032 3.767704 2.890212 -124.744200 2.324532 5.026707 
1.832515 3.767465 2.891309 -124.694400 2.304910 5.203393 
1.830823 3.767355 2.892474 -124.673100 2.250383 5.017339 
1.828359 3.768040 2.893010 -124.665900 2.449847 4.873320 
1.827506 3.767933 2.892033 -124.623700 2.537106 4.746439 
1.826860 3.768182 2.892056 -124.650600 2.560691 4.851907 
1.827921 3.768406 2.893390 -124.607900 2.545880 4.866755 
1.829029 3.768151 2.893898 -124.653800 2.475526 4.880863 
